<svg width="628" height="310" viewBox="0 0 628 310" version="1.1" xmlns="http://www.w3.org/2000/svg" xmlns:xlink="http://www.w3.org/1999/xlink">
<title>bi_attribution</title>
<desc>Created using Figma</desc>
<g id="Canvas" transform="translate(156 -743)">
<g id="bi_attribution">
<g id="Figure 2">
<use xlink:href="#path0_fill" transform="translate(-156 992.216)"/>
</g>
<g id="Figure 3">
<use xlink:href="#path1_fill" transform="translate(38.2035 743)" fill="#1E87E4"/>
</g>
<g id="bi_attribution_light">
<g id="Group">
<g id="Vector">
<use xlink:href="#path2_fill" transform="translate(142.013 793.849)" fill="#FFFFFF"/>
</g>
<g id="Vector">
<use xlink:href="#path3_fill" transform="translate(85.2372 765.794)" fill="#FFFFFF"/>
</g>
<g id="Vector">
<use xlink:href="#path4_fill" transform="translate(189.007 809.489)" fill="#FFFFFF"/>
</g>
</g>
</g>
</g>
</g>
<defs>
<path id="path0_fill" fill-rule="evenodd" d="M 0 0.925071L 17.441 0.925071C 25.5347 0.925071 31.3832 2.10973 34.9864 4.47909C 38.5897 6.84845 40.3913 10.5908 40.3913 15.7061C 40.5053 18.7913 39.5701 21.8238 37.7388 24.3072C 35.8382 26.6729 33.105 28.2195 30.101 28.6293L 30.101 29.0325C 33.5775 29.471 36.7947 31.1028 39.2049 33.6502C 41.2692 36.3134 42.3059 39.6326 42.1248 42.9993C 42.2364 45.364 41.7942 47.722 40.8336 49.8849C 39.873 52.0479 38.4206 53.9558 36.5924 55.4562C 32.9041 58.4597 27.7815 59.9604 21.2245 59.9584L 0 59.9584L 0 0.925071ZM 9.60491 25.3169L 18.8487 25.3169C 22.8679 25.3169 25.8016 24.6771 27.6498 23.3975C 29.4981 22.1179 30.4201 19.9441 30.416 16.8759C 30.5076 15.6957 30.2774 14.5128 29.7502 13.4534C 29.2229 12.394 28.4184 11.4979 27.4224 10.8606C 25.4256 9.6221 22.2578 9.00282 17.9189 9.00282L 9.60491 9.00282L 9.60491 25.3184L 9.60491 25.3169ZM 9.60491 33.15L 9.60491 51.8467L 19.8138 51.8467C 23.0178 52.0693 26.2085 51.2556 28.9162 49.5256C 29.9806 48.6423 30.816 47.5143 31.3512 46.2377C 31.8863 44.9612 32.1054 43.574 31.9897 42.1943C 32.084 40.8844 31.8462 39.5719 31.2984 38.3787C 30.7506 37.1855 29.9105 36.1504 28.8562 35.3695C 26.7652 33.8908 23.5891 33.1505 19.3281 33.1484L 9.60491 33.1484L 9.60491 33.15ZM 54.3377 59.9645L 54.3377 0.925071L 63.9426 0.925071L 63.9426 59.9645L 54.3377 59.9645ZM 137.29 59.9645L 131.423 43.5704L 108.958 43.5704L 103.212 59.9645L 93.0831 59.9645L 115.067 0.683396L 125.517 0.683396L 147.502 59.9645L 137.293 59.9645L 137.29 59.9645ZM 128.889 35.2494L 123.384 19.177C 122.981 18.1016 122.425 16.4085 121.716 14.0976C 121.007 11.7867 120.518 10.0905 120.247 9.00897C 119.416 12.6924 118.357 16.3202 117.074 19.8712L 111.769 35.2556L 128.889 35.2556L 128.889 35.2494ZM 175.55 59.9645L 165.945 59.9645L 165.945 9.21063L 148.662 9.21063L 148.662 0.931225L 192.833 0.931225L 192.833 9.21063L 175.55 9.21063L 175.55 59.9707L 175.55 59.9645ZM 222.132 59.9645L 212.527 59.9645L 212.527 9.21063L 195.244 9.21063L 195.244 0.931225L 239.413 0.931225L 239.413 9.21063L 222.132 9.21063L 222.132 59.9707L 222.132 59.9645ZM 258.026 36.3823L 258.026 59.9645L 248.421 59.9645L 248.421 0.925071L 265.019 0.925071C 272.6 0.925071 278.213 2.3524 281.859 5.20712C 285.504 8.06184 287.326 12.3691 287.323 18.1288C 287.323 25.479 283.52 30.7154 275.911 33.838L 292.509 59.9645L 281.577 59.9645L 267.51 36.3823L 258.026 36.3823ZM 258.026 28.3861L 264.697 28.3861C 269.171 28.3861 272.413 27.5513 274.424 25.8818C 275.459 24.9562 276.269 23.8053 276.792 22.5174C 277.314 21.2294 277.535 19.8387 277.437 18.452C 277.561 17.0743 277.326 15.688 276.756 14.4282C 276.186 13.1684 275.299 12.0782 274.182 11.264C 272.013 9.80992 268.743 9.08286 264.375 9.08286L 258.026 9.08286L 258.026 28.3861ZM 301.027 59.9645L 301.027 0.925071L 310.637 0.925071L 310.637 59.9645L 301.027 59.9645ZM 326.147 0.925071L 343.59 0.925071C 351.684 0.925071 357.531 2.10973 361.132 4.47909C 364.733 6.84845 366.536 10.5908 366.539 15.7061C 366.652 18.7912 365.717 21.8235 363.886 24.3072C 361.986 26.6729 359.253 28.2196 356.25 28.6293L 356.25 29.0325C 359.726 29.4713 362.943 31.1031 365.354 33.6502C 367.418 36.3134 368.455 39.6326 368.274 42.9993C 368.385 45.364 367.943 47.7221 366.983 49.8851C 366.022 52.048 364.57 53.9559 362.741 55.4562C 359.053 58.4597 353.93 59.9604 347.373 59.9584L 326.143 59.9584L 326.143 0.925071L 326.147 0.925071ZM 335.754 25.3169L 344.997 25.3169C 349.017 25.3169 351.95 24.6771 353.799 23.3975C 355.647 22.1179 356.569 19.9441 356.565 16.8759C 356.656 15.6957 356.426 14.5128 355.899 13.4534C 355.372 12.394 354.567 11.4979 353.571 10.8606C 351.576 9.6221 348.407 9.00282 344.066 9.00282L 335.748 9.00282L 335.748 25.3184L 335.754 25.3169ZM 335.754 33.15L 335.754 51.8467L 345.961 51.8467C 349.166 52.0694 352.357 51.2557 355.065 49.5256C 356.129 48.6421 356.964 47.514 357.5 46.2376C 358.035 44.9611 358.254 43.5739 358.139 42.1943C 358.231 40.885 357.991 39.5735 357.442 38.3817C 356.893 37.1899 356.052 36.1564 354.997 35.3772C 352.907 33.8985 349.731 33.1582 345.469 33.1561L 335.745 33.1561L 335.754 33.15ZM 426.544 0.925071L 426.544 39.1267C 426.635 43.1225 425.672 47.0717 423.752 50.5753C 421.883 53.8528 419.066 56.4857 415.673 58.1267C 411.722 59.9853 407.392 60.892 403.028 60.7741C 395.741 60.7741 390.073 58.8363 386.027 54.9605C 381.98 51.0848 379.957 45.754 379.959 38.9682L 379.959 0.925071L 389.604 0.925071L 389.604 38.2801C 389.604 43.1532 390.731 46.7447 392.985 49.0546C 395.239 51.3644 398.695 52.5219 403.354 52.527C 412.411 52.527 416.939 47.7483 416.939 38.1909L 416.939 0.925071L 426.544 0.925071ZM 461.873 59.9645L 452.26 59.9645L 452.26 9.21063L 434.981 9.21063L 434.981 0.931225L 479.148 0.931225L 479.148 9.21063L 461.868 9.21063L 461.868 59.9707L 461.873 59.9645ZM 488.152 59.9645L 488.152 0.925071L 497.759 0.925071L 497.759 59.9645L 488.152 59.9645ZM 565.439 30.3655C 565.439 39.9763 563.047 47.4466 558.265 52.7764C 553.482 58.1061 546.709 60.7721 537.946 60.7741C 529.076 60.7741 522.263 58.1298 517.506 52.8411C 512.749 47.5523 510.372 40.0343 510.374 30.287C 510.374 20.5387 512.765 13.0545 517.548 7.83456C 522.33 2.61458 529.156 0.00306489 538.024 -1.35282e-05C 546.759 -1.35282e-05 553.511 2.65153 558.28 7.95462C 563.049 13.2577 565.435 20.728 565.436 30.3655L 565.439 30.3655ZM 520.586 30.3655C 520.586 37.6336 522.046 43.1456 524.967 46.9012C 527.888 50.6569 532.215 52.5348 537.949 52.5348C 543.654 52.5348 547.961 50.6774 550.87 46.9628C 553.779 43.2482 555.232 37.7157 555.231 30.3655C 555.231 23.123 553.791 17.6301 550.911 13.8867C 548.031 10.1434 543.737 8.27273 538.028 8.27479C 532.269 8.27479 527.922 10.1454 524.987 13.8867C 522.053 17.628 520.585 23.121 520.583 30.3655L 520.586 30.3655ZM 627.008 59.9645L 615.232 59.9645L 586.34 12.9186L 586.019 12.9186L 586.221 15.5353C 586.596 20.5438 586.783 25.1209 586.783 29.2665L 586.783 59.9568L 578.062 59.9568L 578.062 0.925071L 589.717 0.925071L 618.533 47.7293L 618.774 47.7293C 618.72 47.1136 618.613 44.8587 618.453 40.9645C 618.293 37.0703 618.213 34.0345 618.212 31.857L 618.212 0.918918L 627.008 0.918918L 627.008 59.9584L 627.008 59.9645Z"/>
<path id="path1_fill" fill-rule="evenodd" d="M 228.507 35.8786C 228.507 35.8786 225.049 21.6432 216.645 13.2005C 208.214 4.74414 194.333 3.89639 194.333 3.89639C 194.333 3.89639 180.335 2.00147 154.615 0.852339C 154.615 0.852339 129.5 9.1039e-06 114.654 9.1039e-06C 63.7412 9.1039e-06 37.9678 3.89639 37.9678 3.89639C 37.9678 3.89639 25.4853 4.74414 17.062 13.2005C 8.63867 21.6569 5.18168 35.8786 5.18168 35.8786C 5.18168 35.8786 9.25836e-06 58.464 9.25836e-06 95.1493C 9.25836e-06 104.033 0.805487 119.695 0.805487 119.695C 1.42769 131.233 2.89031 142.711 5.18168 154.035C 5.18168 154.035 8.63867 169.885 17.062 178.346C 25.4853 186.807 39.3602 187.65 39.3602 187.65C 39.3602 187.65 72.2146 191.471 121.551 191.471C 172.974 191.471 196.874 187.627 196.874 187.627C 196.874 187.627 207.982 187.032 218.371 176.349C 224.917 169.619 228.752 154.035 228.752 154.035C 228.752 154.035 231.597 141.786 232.947 118.735C 232.947 118.735 233.651 103.351 233.651 94.1432C 233.648 55.2251 228.507 35.8786 228.507 35.8786Z"/>
<path id="path2_fill" d="M -1.6849e-06 89.0561C 9.55552 84.9446 28.9871 78.092 42.068 74.354L 42.068 14.35C 36.5792 12.8451 12.4076 5.53577 -1.6849e-06 -1.12762e-06L -1.6849e-06 89.0561ZM 7.4225 12.2835C 15.9411 15.6399 30.7915 19.5821 34.6455 20.6947L 34.6455 39.7393L 7.4225 39.7393L 7.4225 12.2835Z"/>
<path id="path3_fill" d="M 0 144.363C 0 144.363 28.6989 129.411 51.3138 119.506L 51.3138 25.744C 33.7594 18.0853 16.6306 9.49143 0 0L 0 144.363ZM 42.6928 98.7894L 8.57789 98.8109L 8.57789 15.1616C 16.7733 19.437 28.9305 25.2549 42.6928 31.4034L 42.6928 98.7894Z"/>
<path id="path4_fill" d="M 40.3497 7.79308C 26.7328 6.13772 13.2479 3.53645 -3.28761e-06 6.15067e-07L -3.28761e-06 57.4538C 20.9505 52.348 40.3659 49.4672 40.3659 49.4672L 40.3659 7.79308L 40.3497 7.79308ZM 33.0296 33.9671L 7.33362 33.9053L 7.33362 10.1095C 16.5202 11.9288 24.4813 13.1891 33.0296 14.4145L 33.0296 33.9671Z"/>
</defs>
</svg>
